<svg version="1.1" id="Layer_1" xmlns="http://www.w3.org/2000/svg" xmlns:xlink="http://www.w3.org/1999/xlink" x="0px" y="0px"
	 viewBox="0 0 400 400" style="enable-background:new 0 0 400 400;" xml:space="preserve">
<style type="text/css">
	.st0{fill:#9C9B9B;}
</style>
<g>
	<g>

			<ellipse transform="matrix(0.7071 -0.7071 0.7071 0.7071 -59.7426 190.2904)" class="st0" cx="199.83" cy="167.26" rx="54.97" ry="54.97"/>

			<ellipse transform="matrix(0.7071 -0.7071 0.7071 0.7071 25.959 237.7756)" class="st0" cx="300" cy="87.55" rx="54.97" ry="54.97"/>

			<ellipse transform="matrix(0.7071 -0.7071 0.7071 0.7071 -32.6197 96.3542)" class="st0" cx="100" cy="87.55" rx="54.97" ry="54.97"/>
		<path class="st0" d="M242.16,217.07c-11.42,9.72-26.19,15.6-42.33,15.6c-16.08,0-30.81-5.84-42.21-15.5
			C123.58,233.12,100,267.69,100,307.76v33.33c0,5.71,3.58,10.82,8.96,12.74c23.29,8.3,90.29,26.22,181.34-0.58
			c5.75-1.69,9.7-6.99,9.7-12.98v-32.5C300,267.6,276.32,232.97,242.16,217.07z"/>
		<path class="st0" d="M342.36,137.33c-11.42,9.73-26.21,15.63-42.36,15.63c-15.89,0-30.46-5.7-41.81-15.15
			c4.49,8.86,7.04,18.86,7.04,29.45c0,15.98-5.77,30.64-15.33,42.01c30.04,15.28,52.2,43.91,58.62,78.02
			c24.15-1.04,51.65-5.01,81.78-13.88c5.75-1.69,9.7-6.99,9.7-12.98v-32.5C400,187.85,376.41,153.28,342.36,137.33z"/>
		<path class="st0" d="M141.23,138.28c-11.26,9.17-25.61,14.68-41.23,14.68c-16.15,0-30.94-5.89-42.36-15.63
			C23.59,153.28,0,187.85,0,227.93v33.33c0,5.71,3.58,10.82,8.96,12.74c13.7,4.88,42.52,13.09,82.47,13.57
			c6.34-34.14,28.43-62.82,58.43-78.17c-9.62-11.39-15.44-26.09-15.44-42.14C134.42,156.86,136.89,147.02,141.23,138.28z"/>
	</g>
</g>
</svg>
