<?xml version="1.0" encoding="utf-8"?>
<!-- Generator: Adobe Illustrator 25.4.1, SVG Export Plug-In . SVG Version: 6.00 Build 0)  -->
<svg version="1.1" id="Layer_1" xmlns="http://www.w3.org/2000/svg" xmlns:xlink="http://www.w3.org/1999/xlink" x="0px" y="0px"
	 viewBox="0 0 100 100" style="enable-background:new 0 0 100 100;" xml:space="preserve">
<style type="text/css">
	.st0{fill:#305E70;}
</style>
<path class="st0" d="M76.85,45.63l-8.53-3.54c3.05-2.84,4.97-6.89,4.97-11.39c0-8.58-6.98-15.56-15.57-15.56
	c-5.39,0-10.36,2.78-13.2,7.32c-0.41-0.03-0.81-0.05-1.23-0.05c-8.9,0-16.15,7.24-16.15,16.15c0,4.71,2.03,8.96,5.26,11.91
	l-8.99,3.69c-4.33,1.73-7.12,5.86-7.12,10.52v15.82c0,2.4,1.95,4.35,4.35,4.35h45.31c2.4,0,4.35-1.95,4.35-4.35v-5.3h9.17
	c2.34,0,4.24-1.9,4.24-4.24V55.79C83.71,51.28,81.01,47.3,76.85,45.63z M57.72,18.48c6.74,0,12.23,5.49,12.23,12.23
	c0,6.37-4.89,11.61-11.11,12.18c0.38-1.38,0.59-2.83,0.59-4.33c0-7.23-4.77-13.36-11.33-15.41C50.41,20.23,53.93,18.48,57.72,18.48z
	 M30.48,38.56c0-7.07,5.75-12.81,12.81-12.81s12.81,5.75,12.81,12.81S50.36,51.37,43.3,51.37S30.48,45.63,30.48,38.56z M66.96,80.51
	c0,0.56-0.45,1.01-1.01,1.01H20.64c-0.56,0-1.01-0.45-1.01-1.01V64.69c0-3.29,1.97-6.2,5.04-7.43l10.91-4.48l-0.02-0.05
	c2.3,1.26,4.94,1.98,7.74,1.98c2.8,0,5.43-0.72,7.73-1.97l10.91,4.53c3.05,1.22,5.03,4.14,5.03,7.43V80.51z M80.37,70.97
	c0,0.5-0.41,0.91-0.91,0.91H70.3v-7.19c0-4.66-2.8-8.79-7.1-10.51l-8.98-3.73c1.31-1.2,2.41-2.61,3.27-4.18
	c0.08,0,0.16,0.01,0.24,0.01c2.69,0,5.22-0.68,7.42-1.89l10.44,4.33c2.91,1.16,4.78,3.94,4.78,7.07V70.97z"/>
</svg>
