<svg id="Layer_1" data-name="Layer 1" xmlns="http://www.w3.org/2000/svg" viewBox="0 0 72.88 73.98"><path d="M34.85,65.88a1.27,1.27,0,0,1-1.26-1.53l2.36-12a1.29,1.29,0,0,1,.35-.66L70.22,17.8a1.29,1.29,0,0,1,1.82,0l9.61,9.61a1.28,1.28,0,0,1,0,1.82L47.73,63.15a1.29,1.29,0,0,1-.66.35l-12,2.36A1.06,1.06,0,0,1,34.85,65.88ZM38.4,53.26,36.48,63l9.71-1.92L78.93,28.32l-7.8-7.8Z" transform="translate(-13.56 -13.01)" style="fill:#305e70"/><path d="M81.65,29.23l-1.82-1.82,3.53-3.52a1.77,1.77,0,0,0,0-2.5l-5.3-5.3a1.78,1.78,0,0,0-2.5,0L72,19.62,70.22,17.8l3.53-3.52a4.34,4.34,0,0,1,6.13,0l5.29,5.29a4.35,4.35,0,0,1,0,6.14Z" transform="translate(-13.56 -13.01)" style="fill:#305e70"/><rect x="40.73" y="50.64" width="2.57" height="13.59" transform="translate(-41.86 33.53) rotate(-45)" style="fill:#305e70"/><rect x="41.22" y="39.19" width="35.51" height="2.57" transform="translate(-24.9 40.55) rotate(-45)" style="fill:#305e70"/><path d="M70.91,87H14.84a1.28,1.28,0,0,1-1.28-1.28V29.64a1.28,1.28,0,0,1,1.28-1.28H52.6v2.56H16.13v53.5H69.62V47.34h2.57V85.71A1.28,1.28,0,0,1,70.91,87Z" transform="translate(-13.56 -13.01)" style="fill:#305e70"/></svg>